<?xml version="1.0" encoding="UTF-8"?>
<svg width="13px" height="16px" viewBox="0 0 13 16" version="1.1" xmlns="http://www.w3.org/2000/svg" xmlns:xlink="http://www.w3.org/1999/xlink">
    <!-- Generator: Sketch 52.5 (67469) - http://www.bohemiancoding.com/sketch -->
    <title>Group 13</title>
    <desc>Created with Sketch.</desc>
    <g id="Page-1" stroke="none" stroke-width="1" fill="none" fill-rule="evenodd">
        <g id="用户列表页-copy-17" transform="translate(-48.000000, -412.000000)">
            <g id="Group-9-Copy" transform="translate(35.000000, 398.000000)">
                <g id="Group-13" transform="translate(13.000000, 15.000000)">
                    <rect id="Rectangle-21" fill="#A0A7B4" x="0" y="5" width="13" height="10" rx="1"></rect>
                    <rect id="Rectangle-22" stroke="#A0A7B4" stroke-width="1.5" x="3" y="0" width="7" height="12" rx="3.5"></rect>
                    <path d="M7.18761907,10.1591224 L7.18761907,11.7859001 C7.18761907,12.1791537 6.85998537,12.5 6.45841271,12.5 C6.05684005,12.5 5.72920636,12.1791537 5.72920636,11.7859001 L5.72920636,10.1591224 C5.29487033,9.91155047 5,9.45586195 5,8.92863337 C5,8.1395248 5.65305366,7.5 6.45885546,7.5 C7.26465726,7.5 7.91771092,8.1395248 7.91771092,8.92863337 C7.91726817,9.45586195 7.62239784,9.91155047 7.18761907,10.1591224 Z" id="Path" fill="#0A0E16"></path>
                </g>
            </g>
        </g>
    </g>
</svg>