<?xml version="1.0" encoding="UTF-8"?>
<svg width="15px" height="15px" viewBox="0 0 15 15" version="1.1" xmlns="http://www.w3.org/2000/svg" xmlns:xlink="http://www.w3.org/1999/xlink">
    <!-- Generator: Sketch 52.5 (67469) - http://www.bohemiancoding.com/sketch -->
    <title>Group 15</title>
    <desc>Created with Sketch.</desc>
    <g id="Page-1" stroke="none" stroke-width="1" fill="none" fill-rule="evenodd">
        <g id="用户列表页-copy-17" transform="translate(-48.000000, -340.000000)" fill="#A0A7B4">
            <g id="Group-9-Copy-2" transform="translate(35.000000, 325.000000)">
                <g id="Group-15" transform="translate(13.000000, 15.000000)">
                    <path d="M7,14.4230769 C11.1421356,14.4230769 13.75,14.4230769 15,14.4230769 C15,14.4230769 15,13.7647833 15,12.4481961 L14.9999875,12.4481961 C14.9999875,12.1440945 14.8616082,11.8565172 14.6239706,11.6667643 C12.5901526,10.0427676 10.2154957,9.23076923 7.5,9.23076923 C4.78451071,9.23076923 2.40985864,10.0427638 0.37604379,11.6667529 L0.37603068,11.6667364 C0.138384364,11.8564956 2.62096765e-14,12.144083 2.28705943e-14,12.4481954 C7.65717378e-15,13.7647831 0,14.4230769 0,14.4230769 C0,14.4230769 2.85786438,14.4230769 7,14.4230769 Z" id="Oval-4"></path>
                    <circle id="Oval-3" cx="7.44230769" cy="3.98076923" r="3.98076923"></circle>
                </g>
            </g>
        </g>
    </g>
</svg>